<svg width="49" height="49" viewBox="0 0 49 49" fill="none" xmlns="http://www.w3.org/2000/svg">
<path d="M31.1982 40.6624C31.1982 44.2216 29.1191 47.1062 25.5599 47.1062H12.2697C8.71057 47.1062 6.63145 44.2216 6.63145 40.6624" stroke="black" stroke-width="3" stroke-miterlimit="10" stroke-linecap="round"/>
<path d="M32.6078 32.6077C34.3868 32.6077 35.8296 34.411 35.8296 36.6351C35.8296 38.8592 34.3868 40.6624 32.6078 40.6624H5.22187C3.44279 40.6624 2 38.8592 2 36.6351C2 34.411 3.44279 32.6077 5.22187 32.6077" stroke="black" stroke-width="3" stroke-miterlimit="10" stroke-linecap="round"/>
<path d="M33.4132 32.6078H16.8317C16.6183 32.6079 16.4137 32.6926 16.2628 32.8434L13.5615 35.5447C13.5241 35.5821 13.4797 35.6119 13.4308 35.6321C13.3819 35.6524 13.3295 35.6628 13.2765 35.6628C13.2236 35.6628 13.1712 35.6524 13.1223 35.6321C13.0734 35.6119 13.029 35.5821 12.9916 35.5447L10.2903 32.8434C10.1393 32.6926 9.93475 32.6079 9.72141 32.6078H4.4164C3.77553 32.6078 3.16091 32.3532 2.70775 31.9C2.25458 31.4469 2 30.8322 2 30.1914C2 29.5505 2.25458 28.9359 2.70775 28.4827C3.16091 28.0295 3.77553 27.775 4.4164 27.775H33.4132C34.0541 27.775 34.6687 28.0295 35.1219 28.4827C35.575 28.9359 35.8296 29.5505 35.8296 30.1914C35.8296 30.8322 35.575 31.4469 35.1219 31.9C34.6687 32.3532 34.0541 32.6078 33.4132 32.6078Z" stroke="black" stroke-width="3" stroke-miterlimit="10" stroke-linecap="round"/>
<path d="M5.22186 26.5668V26.5446C5.22186 21.007 9.75261 18.1093 15.2902 18.1093H22.5394C28.077 18.1093 32.6077 21.0292 32.6077 26.5668V26.5446" stroke="black" stroke-width="3" stroke-miterlimit="10" stroke-linecap="round"/>
<path d="M23.0428 10.0547L23.7919 16.4954" stroke="black" stroke-width="3" stroke-miterlimit="10" stroke-linecap="round"/>
<path d="M24.5531 47.1062H38.5793C39.3921 47.1061 40.1749 46.7989 40.7707 46.246C41.3666 45.6931 41.7314 44.9355 41.7921 44.1249L45.3946 10.0547" stroke="black" stroke-width="3" stroke-miterlimit="10" stroke-linecap="round"/>
<path d="M35.8296 10.0547L37.4406 3.61093L42.1727 2" stroke="black" stroke-width="3" stroke-linecap="round" stroke-linejoin="round"/>
<path d="M21.3312 10.0547H47.1061" stroke="black" stroke-width="3" stroke-miterlimit="10" stroke-linecap="round"/>
</svg>
